<svg width="40" height="40" viewBox="0 0 40 40" fill="none" xmlns="http://www.w3.org/2000/svg">
<path d="M20 14C18.4087 14 16.8826 14.6321 15.7574 15.7574C14.6321 16.8826 14 18.4087 14 20C14 21.5913 14.6321 23.1174 15.7574 24.2426C16.8826 25.3679 18.4087 26 20 26C21.5913 26 23.1174 25.3679 24.2426 24.2426C25.3679 23.1174 26 21.5913 26 20C26 18.4087 25.3679 16.8826 24.2426 15.7574C23.1174 14.6321 21.5913 14 20 14ZM20 10C22.6522 10 25.1957 11.0536 27.0711 12.9289C28.9464 14.8043 30 17.3478 30 20C30 22.6522 28.9464 25.1957 27.0711 27.0711C25.1957 28.9464 22.6522 30 20 30C17.3478 30 14.8043 28.9464 12.9289 27.0711C11.0536 25.1957 10 22.6522 10 20C10 17.3478 11.0536 14.8043 12.9289 12.9289C14.8043 11.0536 17.3478 10 20 10ZM33 9.5C33 10.163 32.7366 10.7989 32.2678 11.2678C31.7989 11.7366 31.163 12 30.5 12C29.837 12 29.2011 11.7366 28.7322 11.2678C28.2634 10.7989 28 10.163 28 9.5C28 8.83696 28.2634 8.20107 28.7322 7.73223C29.2011 7.26339 29.837 7 30.5 7C31.163 7 31.7989 7.26339 32.2678 7.73223C32.7366 8.20107 33 8.83696 33 9.5ZM20 4C15.052 4 14.244 4.014 11.942 4.116C10.374 4.19 9.322 4.4 8.346 4.78C7.478 5.116 6.852 5.518 6.186 6.186C5.56001 6.7908 5.07871 7.52917 4.778 8.346C4.398 9.326 4.188 10.376 4.116 11.942C4.012 14.15 4 14.922 4 20C4 24.948 4.014 25.756 4.116 28.058C4.19 29.624 4.4 30.678 4.778 31.652C5.118 32.522 5.518 33.148 6.182 33.812C6.856 34.484 7.482 34.886 8.342 35.218C9.33 35.6 10.382 35.812 11.942 35.884C14.15 35.988 14.922 36 20 36C24.948 36 25.756 35.986 28.058 35.884C29.622 35.81 30.676 35.6 31.652 35.222C32.518 34.884 33.148 34.482 33.812 33.818C34.486 33.144 34.888 32.518 35.22 31.658C35.6 30.672 35.812 29.618 35.884 28.058C35.988 25.85 36 25.078 36 20C36 15.052 35.986 14.244 35.884 11.942C35.81 10.378 35.6 9.322 35.22 8.346C34.9186 7.53 34.4381 6.79192 33.814 6.186C33.2095 5.55969 32.471 5.07833 31.654 4.778C30.674 4.398 29.622 4.188 28.058 4.116C25.85 4.012 25.078 4 20 4ZM20 0C25.434 0 26.112 0.0199999 28.244 0.12C30.374 0.22 31.824 0.554 33.1 1.05C34.42 1.558 35.532 2.246 36.644 3.356C37.661 4.35579 38.4479 5.56518 38.95 6.9C39.444 8.174 39.78 9.626 39.88 11.756C39.974 13.888 40 14.566 40 20C40 25.434 39.98 26.112 39.88 28.244C39.78 30.374 39.444 31.824 38.95 33.1C38.4494 34.4356 37.6622 35.6452 36.644 36.644C35.6439 37.6606 34.4346 38.4475 33.1 38.95C31.826 39.444 30.374 39.78 28.244 39.88C26.112 39.974 25.434 40 20 40C14.566 40 13.888 39.98 11.756 39.88C9.626 39.78 8.176 39.444 6.9 38.95C5.56465 38.4489 4.35505 37.6619 3.356 36.644C2.33881 35.6444 1.55186 34.4349 1.05 33.1C0.554 31.826 0.22 30.374 0.12 28.244C0.0259999 26.112 0 25.434 0 20C0 14.566 0.0199999 13.888 0.12 11.756C0.22 9.624 0.554 8.176 1.05 6.9C1.55047 5.56436 2.33761 4.35464 3.356 3.356C4.35534 2.33846 5.56486 1.55146 6.9 1.05C8.176 0.554 9.624 0.22 11.756 0.12C13.888 0.0259999 14.566 0 20 0Z" fill="white"/>
</svg>
