<svg width="20" height="16" viewBox="0 0 20 16" fill="none" xmlns="http://www.w3.org/2000/svg">
<path d="M16.16 0.50998C12.0681 -0.169993 7.89194 -0.169993 3.8 0.50998C1.46 0.99998 0 2.50998 0 4.47998V11.48C0 13.48 1.46 14.97 3.84 15.48C5.87551 15.8227 7.93585 15.9966 10 16C12.0705 15.9995 14.1374 15.8289 16.18 15.49C18.5 15.05 20 13.49 20 11.49V4.48998C20 2.49998 18.5 0.93998 16.16 0.50998ZM13.26 8.44998L8.26 11.45C8.18179 11.4976 8.09157 11.5219 8 11.52C7.91318 11.5193 7.82768 11.4988 7.75 11.46C7.67137 11.4123 7.6068 11.3445 7.56289 11.2637C7.51897 11.1829 7.49727 11.0919 7.5 11V4.99998C7.50075 4.91142 7.52411 4.82452 7.56786 4.74752C7.61161 4.67051 7.67431 4.60596 7.75 4.55998C7.82843 4.51796 7.91603 4.49598 8.005 4.49598C8.09398 4.49598 8.18157 4.51796 8.26 4.55998L13.26 7.55998C13.3323 7.60607 13.3918 7.66962 13.433 7.74478C13.4742 7.81994 13.4958 7.90427 13.4958 7.98998C13.4958 8.07569 13.4742 8.16002 13.433 8.23518C13.3918 8.31034 13.3323 8.37389 13.26 8.41998V8.44998Z" fill="white"/>
</svg>
